<?xml version="1.0" encoding="UTF-8"?>
<svg width="980px" height="1024px" viewBox="0 0 980 1024" version="1.1" xmlns="http://www.w3.org/2000/svg" xmlns:xlink="http://www.w3.org/1999/xlink">
    <title>logo</title>
    <g id="icons" stroke="none" stroke-width="1" fill="none" fill-rule="evenodd">
        <g id="1024x1024" transform="translate(-22, 0)">
            <g id="logo" transform="translate(23, 0)">
                <path d="M11.7440964,430.273346 C48.9511037,391.368482 88.0918981,445.833841 134.370403,492.676992 C173.231179,532.011912 207,558.113541 207,582.599195 C207,607.08485 172.292873,635.177682 129.230091,677.488747 C84.8975061,721.047451 46.4848417,765.348087 15.3723574,734.976546 C-39.9330361,680.98825 85.1495271,627.795821 89.0468538,582.878929 C92.9441803,537.962036 -39.3270655,483.675023 11.7440964,430.273346 Z" id="Path" stroke="color(display-p3 0.255 0.541 0.600)" fill="color(display-p3 0.255 0.541 0.600)" fill-rule="nonzero"></path>
                <path d="M782.744097,292.273346 C819.951103,253.368482 859.091898,307.833841 905.370403,354.676994 C944.231179,394.011912 978,420.113543 978,444.599197 C978,469.084851 943.292874,497.177682 900.230091,539.488749 C855.897505,583.047452 817.484841,627.348087 786.372357,596.976546 C731.066963,542.98825 856.149526,489.795823 860.046854,444.878929 C863.94418,399.962037 731.672933,345.675025 782.744097,292.273346 Z" id="Path" stroke="color(display-p3 0.180 0.208 0.376)" fill="color(display-p3 0.184 0.204 0.380)" fill-rule="nonzero" transform="translate(874.5, 443) scale(-1, 1) translate(-874.5, -443)"></path>
                <path d="M44,587.184262 C44,509.183945 166.475656,417.059495 254.966301,325.504443 C372.823473,203.565906 462.2752,85.7604583 556.062984,178.032346 C701.102725,320.727806 360.268296,461.240693 360.268296,587.184262 C360.268296,713.127833 697.85449,836.685013 556.062984,989.264648 C460.959244,1091.6043 362.62288,947.052775 238.248412,824.097192 C149.024914,735.891573 44,663.161068 44,587.184262 Z" id="Path-2" stroke="color(display-p3 0.255 0.541 0.600)" fill="color(display-p3 0.255 0.541 0.600)" fill-rule="nonzero" transform="translate(318, 584.5) scale(-1, 1) translate(-318, -584.5)"></path>
                <path d="M398.45764,343 C343.485881,390.627604 316,437.150828 316,482.569668 C316,513.031359 350.843701,558.659045 407.154646,619.752303 C425.587661,639.750773 458.888078,673.82709 507.055903,721.981251 C506.990614,722.544485 518.865323,710.417918 542.680034,685.601546 C566.494743,660.785177 593.601399,629.404693 624,591.460097 L398.45764,343 Z" id="Path-3" stroke="color(display-p3 0.192 0.443 0.514)" fill="color(display-p3 0.192 0.443 0.514)" fill-rule="nonzero"></path>
                <path d="M352,442.184264 C352,364.183945 474.475656,272.059495 562.9663,180.504443 C680.823473,58.5659069 770.2752,-59.2395418 864.062983,33.0323461 C1009.10272,175.727805 668.268297,316.240692 668.268297,442.184264 C668.268297,568.127833 1005.85449,691.685013 864.062983,844.264648 C768.959244,946.604302 670.622881,802.052775 546.248412,679.097192 C457.024913,590.891573 352,518.161068 352,442.184264 Z" id="Path-2" stroke="color(display-p3 0.184 0.204 0.380)" fill="color(display-p3 0.184 0.204 0.380)" fill-rule="nonzero"></path>
            </g>
        </g>
    </g>
</svg>